<svg id="Layer_1" data-name="Layer 1" xmlns="http://www.w3.org/2000/svg" viewBox="0 0 97.58 129.54"><defs><style>.cls-1{fill:#3e2b2f;}.cls-2{fill:#007853;}.cls-3{fill:#fff;}</style></defs><path class="cls-1" d="M.23,1.67H22.31c22.21,0,24,7.4,24,36.19V67.34c0,25.36-4.53,33.32-26.19,33.32H.23ZM13.94,89.14h6.58c10.15,0,12.07-5.35,12.07-22.35v-34c0-14.67-1.51-19.61-13.16-19.61H13.94Z" transform="translate(0 -0.85)"/><path class="cls-1" d="M54.53,26.89c0-13.84,4.52-26,23.17-26,13.57,0,19.88,6.85,19.88,18v9.87H84.69V21.82c0-6.3-2.2-10.28-8-10.28-7.13,0-8.5,5.07-8.5,17V77.07c0,11.66,3.7,13.71,8.08,13.71,5.08,0,8.37-3.56,8.37-11.79V72.14H97.58v11c0,10.42-4.25,18.37-20.16,18.37-17.27,0-22.89-9.19-22.89-24.54Z" transform="translate(0 -0.85)"/><rect class="cls-2" x="19.21" y="101.84" width="9.33" height="47.76" transform="translate(-101.84 148.75) rotate(-90)"/><rect class="cls-1" x="69.03" y="101.84" width="9.33" height="47.76" transform="translate(-52.02 198.57) rotate(-90)"/><rect class="cls-3" x="47.76" y="120.21" width="2.06" height="9.33"/></svg>